<svg width="960" height="790" viewBox="0 0 960 790" xmlns="http://www.w3.org/2000/svg" role="img">
<title>Tier B Mobile Robot — Software Architecture</title>
<desc>Software architecture: Python planning layer, co-simulation bridge, ROS2 motion control on RPi4, micro-ROS firmware on ESP32, with communication channels</desc>
<style>
.th{font-family:-apple-system,BlinkMacSystemFont,"Segoe UI",Helvetica,Arial,sans-serif;font-size:13px;font-weight:600;fill:#1a1a1a;}
.t {font-family:-apple-system,BlinkMacSystemFont,"Segoe UI",Helvetica,Arial,sans-serif;font-size:12px;font-weight:400;fill:#1a1a1a;}
.ts{font-family:-apple-system,BlinkMacSystemFont,"Segoe UI",Helvetica,Arial,sans-serif;font-size:11px;font-weight:400;fill:#444441;}
.tl{font-family:-apple-system,BlinkMacSystemFont,"Segoe UI",Helvetica,Arial,sans-serif;font-size:10px;font-weight:400;fill:#5f5e5a;}
.tc{font-family:-apple-system,BlinkMacSystemFont,"Segoe UI",Helvetica,Arial,sans-serif;font-size:11px;font-weight:500;fill:#1a1a1a;}
.title{font-family:-apple-system,BlinkMacSystemFont,"Segoe UI",Helvetica,Arial,sans-serif;font-size:15px;font-weight:600;fill:#1a1a1a;}
.sub  {font-family:-apple-system,BlinkMacSystemFont,"Segoe UI",Helvetica,Arial,sans-serif;font-size:11px;font-weight:400;fill:#5f5e5a;}
</style>
<defs>
  <marker id="arr" viewBox="0 0 10 10" refX="8" refY="5" markerWidth="5" markerHeight="5" orient="auto-start-reverse">
    <path d="M2 1L8 5L2 9" fill="none" stroke="context-stroke" stroke-width="1.5" stroke-linecap="round" stroke-linejoin="round"/>
  </marker>
  <marker id="arr2" viewBox="0 0 10 10" refX="8" refY="5" markerWidth="5" markerHeight="5" orient="auto">
    <path d="M2 1L8 5L2 9" fill="none" stroke="context-stroke" stroke-width="1.5" stroke-linecap="round" stroke-linejoin="round"/>
  </marker>
</defs>
<rect width="960" height="790" fill="#FFFFFF"/>
<text x="480" y="20" text-anchor="middle" class="title">Tier B Mobile Robot — Software Architecture</text>
<text x="480" y="36" text-anchor="middle" class="sub">ROS 2 Humble · Python planning layer · Co-simulation bridge · micro-ROS firmware · linorobot2_hardware</text>
<rect x="10" y="46" width="390" height="22" rx="4" fill="#534AB7" stroke="#534AB7" stroke-width="0.8"/>
<text x="205" y="61" text-anchor="middle" class="tl" fill="#FFFFFF">Host PC  ·  Ubuntu 22.04  ·  ROS 2 Humble  ·  Python 3.12</text>
<rect x="400" y="46" width="160" height="22" rx="4" fill="#5F5E5A" stroke="#5F5E5A" stroke-width="0.8"/>
<text x="480" y="61" text-anchor="middle" class="tl" fill="#FFFFFF">Communication</text>
<rect x="560" y="46" width="390" height="22" rx="4" fill="#0F6E56" stroke="#0F6E56" stroke-width="0.8"/>
<text x="755" y="61" text-anchor="middle" class="tl" fill="#FFFFFF">Mobile Robot × 4  ·  Ubuntu 22.04  ·  ROS 2 Humble  ·  micro-ROS</text>
<rect x="10" y="76" width="390" height="202" rx="5" fill="#EEEDFE" stroke="#534AB7" stroke-width="0.8"/>
<rect x="10" y="76" width="390" height="18" rx="5" fill="#534AB7" stroke="#534AB7" stroke-width="0.8"/>
<text x="205" y="89" text-anchor="middle" class="tl" fill="#FFFFFF">A1 — Python planning layer  (coordinator_node.py, controller_node.py, cosim_manager.py)</text>
<rect x="18" y="100" width="180" height="170" rx="4" fill="#FFFFFF" stroke="#AFA9EC" stroke-width="0.8"/>
<rect x="18" y="100" width="180" height="15" rx="4" fill="#AFA9EC" stroke="#AFA9EC" stroke-width="0.8"/>
<text x="108" y="110" text-anchor="middle" class="tl" fill="#3C3489">coordinator_node.py</text>
<text x="108" y="123" text-anchor="middle" class="tl" fill="#3C3489">ZMQ REP socket (port 5556)</text>
<text x="108" y="137" text-anchor="middle" class="tl" fill="#3C3489">Broadcasts r, v to all agents</text>
<text x="108" y="151" text-anchor="middle" class="tl" fill="#3C3489">Aggregates U_seq from MPC</text>
<text x="108" y="165" text-anchor="middle" class="tl" fill="#3C3489">Assembles (M×N×dim) array</text>
<text x="108" y="179" text-anchor="middle" class="tl" fill="#3C3489">Publishes barycenter r̄_i(j)</text>
<text x="108" y="193" text-anchor="middle" class="tl" fill="#3C3489">Step rate: 1 Hz outer</text>
<text x="108" y="207" text-anchor="middle" class="tl" fill="#3C3489">Receives plant_step{r,v}</text>
<text x="108" y="221" text-anchor="middle" class="tl" fill="#3C3489">Distributes state to ctrls</text>
<rect x="206" y="100" width="186" height="170" rx="4" fill="#FFFFFF" stroke="#AFA9EC" stroke-width="0.8"/>
<rect x="206" y="100" width="186" height="15" rx="4" fill="#AFA9EC" stroke="#AFA9EC" stroke-width="0.8"/>
<text x="299" y="110" text-anchor="middle" class="tl" fill="#3C3489">controller_node.py × 4</text>
<text x="299" y="123" text-anchor="middle" class="tl" fill="#3C3489">ZMQ REQ socket (per agent)</text>
<text x="299" y="137" text-anchor="middle" class="tl" fill="#3C3489">Distributed MPC OCP solver</text>
<text x="299" y="151" text-anchor="middle" class="tl" fill="#3C3489">Horizon M · N agents</text>
<text x="299" y="165" text-anchor="middle" class="tl" fill="#3C3489">Solves in y_i = z_i − c_i coords</text>
<text x="299" y="179" text-anchor="middle" class="tl" fill="#3C3489">Terminal hull constraint</text>
<text x="299" y="193" text-anchor="middle" class="tl" fill="#3C3489">Lexicographic OCP selection</text>
<text x="299" y="207" text-anchor="middle" class="tl" fill="#3C3489">Returns U_seq[0:M]</text>
<text x="299" y="221" text-anchor="middle" class="tl" fill="#3C3489">Hybrid request → u_safe</text>
<rect x="10" y="286" width="390" height="172" rx="5" fill="#FAEEDA" stroke="#854F0B" stroke-width="0.8"/>
<rect x="10" y="286" width="390" height="18" rx="5" fill="#854F0B" stroke="#854F0B" stroke-width="0.8"/>
<text x="205" y="299" text-anchor="middle" class="tl" fill="#FFFFFF">A2 — Co-simulation bridge layer  (cosim_config.py, cosim_bridge.py, cosim_logger.py)</text>
<rect x="18" y="310" width="185" height="140" rx="4" fill="#FFFFFF" stroke="#EF9F27" stroke-width="0.8"/>
<rect x="18" y="310" width="185" height="15" rx="4" fill="#EF9F27" stroke="#EF9F27" stroke-width="0.8"/>
<text x="110" y="320" text-anchor="middle" class="tl" fill="#633806">cosim_bridge.py</text>
<text x="110" y="333" text-anchor="middle" class="tl" fill="#633806">Owns matlab.engine session</text>
<text x="110" y="347" text-anchor="middle" class="tl" fill="#633806">start() / stop() / step()</text>
<text x="110" y="361" text-anchor="middle" class="tl" fill="#633806">Writes u_ref_i to MATLAB ws</text>
<text x="110" y="375" text-anchor="middle" class="tl" fill="#633806">Calls eng.cosim_step()</text>
<text x="110" y="389" text-anchor="middle" class="tl" fill="#633806">Reads odo_i from MATLAB ws</text>
<text x="110" y="403" text-anchor="middle" class="tl" fill="#633806">Returns OdometryBundle</text>
<text x="110" y="417" text-anchor="middle" class="tl" fill="#633806">10 s timeout guard</text>
<rect x="211" y="310" width="181" height="140" rx="4" fill="#FFFFFF" stroke="#EF9F27" stroke-width="0.8"/>
<rect x="211" y="310" width="181" height="15" rx="4" fill="#EF9F27" stroke="#EF9F27" stroke-width="0.8"/>
<text x="301" y="320" text-anchor="middle" class="tl" fill="#633806">cosim_config.py  /  cosim_logger.py</text>
<text x="301" y="333" text-anchor="middle" class="tl" fill="#633806">CoSimConfig (frozen dataclass)</text>
<text x="301" y="347" text-anchor="middle" class="tl" fill="#633806">wheel_radius, wheel_sep</text>
<text x="301" y="361" text-anchor="middle" class="tl" fill="#633806">encoder_cpr, PID gains</text>
<text x="301" y="375" text-anchor="middle" class="tl" fill="#633806">initial_positions × N</text>
<text x="301" y="389" text-anchor="middle" class="tl" fill="#633806">─────────────────────</text>
<text x="301" y="403" text-anchor="middle" class="tl" fill="#633806">planning.csv</text>
<text x="301" y="417" text-anchor="middle" class="tl" fill="#633806">odometry.csv  (err_pos col)</text>
<text x="301" y="431" text-anchor="middle" class="tl" fill="#633806">hybrid_modes.csv</text>
<text x="301" y="445" text-anchor="middle" class="tl" fill="#633806">health.csv  (per outer step)</text>
<rect x="10" y="466" width="390" height="80" rx="5" fill="#F1EFE8" stroke="#B4B2A9" stroke-width="0.8"/>
<rect x="10" y="466" width="390" height="15" rx="5" fill="#B4B2A9" stroke="#B4B2A9" stroke-width="0.8"/>
<text x="205" y="476" text-anchor="middle" class="tl" fill="#2C2C2A">A3 — MATLAB/Simulink  (simulation-only, replaced by hardware at deploy)</text>
<text x="205" y="490" text-anchor="middle" class="tl" fill="#5F5E5A">build_unicycle_model.m · cosim_step.m · unicycle_cosim.slx</text>
<text x="205" y="506" text-anchor="middle" class="tl" fill="#5F5E5A">From Workspace (u_ref_i) → Motion Controller → Unicycle ODE1 → To Workspace (odo_i)</text>
<text x="205" y="522" text-anchor="middle" class="tl" fill="#5F5E5A">Simulink fixed-step ODE1 · count-based stepForward · OCP closed-loop validation</text>
<rect x="400" y="76" width="160" height="714" rx="4" fill="#F1EFE8" stroke="#B4B2A9" stroke-width="0.8"/>
<text x="480" y="92" text-anchor="middle" class="tc" fill="#5F5E5A">Channel / medium</text>
<rect x="408" y="100" width="144" height="70" rx="4" fill="#FAEEDA" stroke="#EF9F27" stroke-width="0.8"/>
<text x="480" y="113" text-anchor="middle" class="tl" fill="#633806">WiFi 802.11n/ac</text>
<text x="480" y="127" text-anchor="middle" class="tc" fill="#633806">ZMQ REQ/REP</text>
<text x="480" y="141" text-anchor="middle" class="tl" fill="#633806">UDP · per robot</text>
<text x="480" y="155" text-anchor="middle" class="tl" fill="#712B13">plant_step{r,v}</text>
<text x="480" y="169" text-anchor="middle" class="tl" fill="#085041">u_safe (Twist)</text>
<line x1="400" y1="140" x2="410" y2="140" stroke="#0F6E56" stroke-width="1.2" marker-end="url(#arr)"/>
<line x1="550" y1="155" x2="540" y2="155" stroke="#993C1D" stroke-width="1.2" marker-end="url(#arr)"/>
<rect x="408" y="178" width="144" height="52" rx="4" fill="#E1F5EE" stroke="#5DCAA5" stroke-width="0.8"/>
<text x="480" y="191" text-anchor="middle" class="tl" fill="#085041">ROS 2 DDS (local)</text>
<text x="480" y="205" text-anchor="middle" class="tl" fill="#085041">robot_agent.py ↔ EKF</text>
<text x="480" y="219" text-anchor="middle" class="tl" fill="#085041">/cmd_vel · /odom · /imu</text>
<rect x="408" y="238" width="144" height="44" rx="4" fill="#F1EFE8" stroke="#5F5E5A" stroke-width="0.8"/>
<text x="480" y="251" text-anchor="middle" class="tl" fill="#2C2C2A">USB 2.0 Serial</text>
<text x="480" y="265" text-anchor="middle" class="tl" fill="#2C2C2A">micro-ROS transport</text>
<text x="480" y="279" text-anchor="middle" class="tl" fill="#5F5E5A">RPi4 ↔ ESP32</text>
<line x1="400" y1="200" x2="410" y2="200" stroke="#534AB7" stroke-width="1.2" marker-end="url(#arr)"/>
<line x1="550" y1="200" x2="540" y2="200" stroke="#534AB7" stroke-width="1.2" marker-end="url(#arr)"/>
<line x1="400" y1="370" x2="410" y2="370" stroke="#854F0B" stroke-width="1.2" marker-end="url(#arr)"/>
<line x1="550" y1="370" x2="540" y2="370" stroke="#854F0B" stroke-width="1.2" marker-end="url(#arr)"/>
<rect x="408" y="290" width="144" height="44" rx="4" fill="#FAECE7" stroke="#F0997B" stroke-width="0.8"/>
<text x="480" y="303" text-anchor="middle" class="tl" fill="#712B13">PWM / GPIO</text>
<text x="480" y="317" text-anchor="middle" class="tl" fill="#712B13">AIN1/2 · BIN1/2 · PWMA/B</text>
<text x="480" y="331" text-anchor="middle" class="tl" fill="#712B13">STBY · 3.3 V logic</text>
<rect x="408" y="342" width="144" height="44" rx="4" fill="#FAECE7" stroke="#F0997B" stroke-width="0.8"/>
<text x="480" y="355" text-anchor="middle" class="tl" fill="#712B13">Encoder A/B quadrature</text>
<text x="480" y="369" text-anchor="middle" class="tl" fill="#712B13">11 CPR / rev · 3.3 V</text>
<text x="480" y="383" text-anchor="middle" class="tl" fill="#712B13">hardware interrupt ISR</text>
<rect x="408" y="394" width="144" height="36" rx="4" fill="#E6F1FB" stroke="#85B7EB" stroke-width="0.8"/>
<text x="480" y="407" text-anchor="middle" class="tl" fill="#0C447C">I²C bus (SDA/SCL)</text>
<text x="480" y="421" text-anchor="middle" class="tl" fill="#0C447C">100 kHz · addr 0x68</text>
<rect x="408" y="438" width="144" height="36" rx="4" fill="#E6F1FB" stroke="#85B7EB" stroke-width="0.8"/>
<text x="480" y="451" text-anchor="middle" class="tl" fill="#0C447C">DC motor wires</text>
<text x="480" y="465" text-anchor="middle" class="tl" fill="#0C447C">AO1/AO2 · BO1/BO2</text>
<rect x="560" y="76" width="390" height="202" rx="5" fill="#E1F5EE" stroke="#0F6E56" stroke-width="0.8"/>
<rect x="560" y="76" width="390" height="18" rx="5" fill="#0F6E56" stroke="#0F6E56" stroke-width="0.8"/>
<text x="755" y="89" text-anchor="middle" class="tl" fill="#FFFFFF">C1 — ROS 2 motion control layer  ·  RPi 4B  ·  robot_agent.py</text>
<rect x="568" y="100" width="185" height="170" rx="4" fill="#FFFFFF" stroke="#5DCAA5" stroke-width="0.8"/>
<rect x="568" y="100" width="185" height="15" rx="4" fill="#5DCAA5" stroke="#5DCAA5" stroke-width="0.8"/>
<text x="660" y="110" text-anchor="middle" class="tl" fill="#085041">robot_agent.py</text>
<text x="660" y="123" text-anchor="middle" class="tl" fill="#085041">rclpy Node (ROS2 Python)</text>
<text x="660" y="137" text-anchor="middle" class="tl" fill="#085041">ZMQ REP → receives u_safe</text>
<text x="660" y="151" text-anchor="middle" class="tl" fill="#085041">Publishes /cmd_vel (Twist)</text>
<text x="660" y="165" text-anchor="middle" class="tl" fill="#085041">ZMQ REQ → sends r, v odom</text>
<text x="660" y="179" text-anchor="middle" class="tl" fill="#085041">Subscribes /odom (Odometry)</text>
<text x="660" y="193" text-anchor="middle" class="tl" fill="#085041">Subscribes /imu/data</text>
<text x="660" y="207" text-anchor="middle" class="tl" fill="#085041">10 Hz publish loop</text>
<text x="660" y="221" text-anchor="middle" class="tl" fill="#085041">ROS_DOMAIN_ID isolation</text>
<rect x="761" y="100" width="181" height="170" rx="4" fill="#FFFFFF" stroke="#5DCAA5" stroke-width="0.8"/>
<rect x="761" y="100" width="181" height="15" rx="4" fill="#5DCAA5" stroke="#5DCAA5" stroke-width="0.8"/>
<text x="851" y="110" text-anchor="middle" class="tl" fill="#085041">ROS 2 Humble stack</text>
<text x="851" y="123" text-anchor="middle" class="tl" fill="#085041">micro_ros_agent (USB bridge)</text>
<text x="851" y="137" text-anchor="middle" class="tl" fill="#085041">robot_localization (EKF)</text>
<text x="851" y="151" text-anchor="middle" class="tl" fill="#085041">robot_state_publisher</text>
<text x="851" y="165" text-anchor="middle" class="tl" fill="#085041">joint_state_publisher</text>
<text x="851" y="179" text-anchor="middle" class="tl" fill="#085041">TF2 transform tree</text>
<text x="851" y="193" text-anchor="middle" class="tl" fill="#085041">/odom ← EKF fused output</text>
<text x="851" y="207" text-anchor="middle" class="tl" fill="#085041">/odom/unfiltered ← raw enc.</text>
<text x="851" y="221" text-anchor="middle" class="tl" fill="#085041">/imu/data ← MPU-6050</text>
<rect x="560" y="286" width="390" height="204" rx="5" fill="#FAECE7" stroke="#993C1D" stroke-width="0.8"/>
<rect x="560" y="286" width="390" height="18" rx="5" fill="#993C1D" stroke="#993C1D" stroke-width="0.8"/>
<text x="755" y="299" text-anchor="middle" class="tl" fill="#FFFFFF">C2 — Motor drive control layer  ·  ESP32  ·  linorobot2_hardware  ·  micro-ROS</text>
<rect x="568" y="310" width="120" height="172" rx="4" fill="#FFFFFF" stroke="#F0997B" stroke-width="0.8"/>
<rect x="568" y="310" width="120" height="15" rx="4" fill="#F0997B" stroke="#F0997B" stroke-width="0.8"/>
<text x="628" y="320" text-anchor="middle" class="tl" fill="#712B13">micro-ROS node</text>
<text x="628" y="333" text-anchor="middle" class="tl" fill="#712B13">rcl_node (C++)</text>
<text x="628" y="347" text-anchor="middle" class="tl" fill="#712B13">USB serial transport</text>
<text x="628" y="361" text-anchor="middle" class="tl" fill="#712B13">Sub: /cmd_vel</text>
<text x="628" y="375" text-anchor="middle" class="tl" fill="#712B13">Pub: /odom/unfiltered</text>
<text x="628" y="389" text-anchor="middle" class="tl" fill="#712B13">Pub: /imu/data</text>
<text x="628" y="403" text-anchor="middle" class="tl" fill="#712B13">Executor loop 50 Hz</text>
<text x="628" y="417" text-anchor="middle" class="tl" fill="#712B13">Reconnect on drop</text>
<text x="628" y="431" text-anchor="middle" class="tl" fill="#712B13">Watchdog timer</text>
<rect x="698" y="310" width="120" height="172" rx="4" fill="#FFFFFF" stroke="#F0997B" stroke-width="0.8"/>
<rect x="698" y="310" width="120" height="15" rx="4" fill="#F0997B" stroke="#F0997B" stroke-width="0.8"/>
<text x="758" y="320" text-anchor="middle" class="tl" fill="#712B13">PID velocity ctrl</text>
<text x="758" y="333" text-anchor="middle" class="tl" fill="#712B13">Discrete-time PID</text>
<text x="758" y="347" text-anchor="middle" class="tl" fill="#712B13">Left wheel loop</text>
<text x="758" y="361" text-anchor="middle" class="tl" fill="#712B13">Right wheel loop</text>
<text x="758" y="375" text-anchor="middle" class="tl" fill="#712B13">Setpoint: ω_ref (rad/s)</text>
<text x="758" y="389" text-anchor="middle" class="tl" fill="#712B13">Feedback: enc. ISR</text>
<text x="758" y="403" text-anchor="middle" class="tl" fill="#712B13">Output: PWM duty %</text>
<text x="758" y="417" text-anchor="middle" class="tl" fill="#712B13">50 Hz update rate</text>
<text x="758" y="431" text-anchor="middle" class="tl" fill="#712B13">Gain: kp, ki, kd</text>
<rect x="828" y="310" width="114" height="172" rx="4" fill="#FFFFFF" stroke="#F0997B" stroke-width="0.8"/>
<rect x="828" y="310" width="114" height="15" rx="4" fill="#F0997B" stroke="#F0997B" stroke-width="0.8"/>
<text x="885" y="320" text-anchor="middle" class="tl" fill="#712B13">Driver + Encoder ISR</text>
<text x="885" y="333" text-anchor="middle" class="tl" fill="#712B13">TB6612FNG HAL</text>
<text x="885" y="347" text-anchor="middle" class="tl" fill="#712B13">AIN1/2 direction ctrl</text>
<text x="885" y="361" text-anchor="middle" class="tl" fill="#712B13">PWMA duty (LEDC)</text>
<text x="885" y="375" text-anchor="middle" class="tl" fill="#712B13">BIN1/2 + PWMB (M2)</text>
<text x="885" y="389" text-anchor="middle" class="tl" fill="#712B13">STBY enable logic</text>
<text x="885" y="403" text-anchor="middle" class="tl" fill="#712B13">ENC A/B GPIO ISR</text>
<text x="885" y="417" text-anchor="middle" class="tl" fill="#712B13">Quadrature decode</text>
<text x="885" y="431" text-anchor="middle" class="tl" fill="#712B13">Tick → Δθ (11 CPR)</text>
<rect x="560" y="498" width="390" height="60" rx="5" fill="#E6F1FB" stroke="#185FA5" stroke-width="0.8"/>
<rect x="560" y="498" width="390" height="15" rx="5" fill="#185FA5" stroke="#185FA5" stroke-width="0.8"/>
<text x="755" y="508" text-anchor="middle" class="tl" fill="#FFFFFF">C3 — Physical actuation and sensing  ·  hardware components</text>
<text x="755" y="522" text-anchor="middle" class="tl" fill="#0C447C">U2: TB6612FNG  ·  M1: JGA25-370 left  ·  M2: JGA25-370 right  ·  U5: MPU-6050 IMU</text>
<text x="755" y="538" text-anchor="middle" class="tl" fill="#0C447C">Encoder A/B → ISR → tick count → Δθ → v_wheel → EKF odometry → /odom/unfiltered</text>
<path d="M 395 155 L 565 155" fill="none" stroke="#993C1D" stroke-width="1.5" stroke-dasharray="5,3"/>
<text x="480" y="150" text-anchor="middle" class="tl" fill="#712B13">u_safe</text>
<path d="M 565 170 L 395 170" fill="none" stroke="#0F6E56" stroke-width="1.5" stroke-dasharray="5,3"/>
<text x="480" y="185" text-anchor="middle" class="tl" fill="#085041">r, v  (odom)</text>
<line x1="480" y1="278" x2="480" y2="286" stroke="#5F5E5A" stroke-width="1.5" marker-end="url(#arr)"/>
<line x1="480" y1="284" x2="480" y2="310" stroke="#5F5E5A" stroke-width="1.5" marker-end="url(#arr)"/>
<line x1="10" y1="282" x2="560" y2="282" stroke="#B4B2A9" stroke-width="0.5" stroke-dasharray="4,4"/>
<line x1="560" y1="282" x2="950" y2="282" stroke="#B4B2A9" stroke-width="0.5" stroke-dasharray="4,4"/>
<line x1="10" y1="462" x2="395" y2="462" stroke="#B4B2A9" stroke-width="0.5" stroke-dasharray="4,4"/>
<line x1="560" y1="494" x2="950" y2="494" stroke="#B4B2A9" stroke-width="0.5" stroke-dasharray="4,4"/>
<rect x="10" y="566" width="940" height="72" rx="5" fill="#F1EFE8" stroke="#B4B2A9" stroke-width="0.8"/>
<text x="480" y="580" text-anchor="middle" class="tc" fill="#2C2C2A">Legend</text>
<rect x="20" y="588" width="14" height="14" rx="2" fill="#CECBF6" stroke="#534AB7" stroke-width="1"/>
<text x="38" y="599" text-anchor="start" class="tl" fill="#2C2C2A">Python planning layer</text>
<rect x="197" y="588" width="14" height="14" rx="2" fill="#FAEEDA" stroke="#854F0B" stroke-width="1"/>
<text x="215" y="599" text-anchor="start" class="tl" fill="#2C2C2A">Co-simulation bridge</text>
<rect x="367" y="588" width="14" height="14" rx="2" fill="#F1EFE8" stroke="#5F5E5A" stroke-width="1"/>
<text x="385" y="599" text-anchor="start" class="tl" fill="#2C2C2A">MATLAB/Simulink (simulation)</text>
<rect x="593" y="588" width="14" height="14" rx="2" fill="#E1F5EE" stroke="#0F6E56" stroke-width="1"/>
<text x="611" y="599" text-anchor="start" class="tl" fill="#2C2C2A">ROS 2 motion control (RPi4)</text>
<rect x="812" y="588" width="14" height="14" rx="2" fill="#FAECE7" stroke="#993C1D" stroke-width="1"/>
<text x="830" y="599" text-anchor="start" class="tl" fill="#2C2C2A">Embedded firmware (ESP32)</text>
<rect x="1017" y="588" width="14" height="14" rx="2" fill="#E6F1FB" stroke="#185FA5" stroke-width="1"/>
<text x="1035" y="599" text-anchor="start" class="tl" fill="#2C2C2A">Physical actuation/sensing</text>
<line x1="20" y1="622" x2="50" y2="622" stroke="#993C1D" stroke-width="1.5" stroke-dasharray="5,3"/>
<text x="55" y="626" text-anchor="start" class="tl" fill="#2C2C2A">ZMQ data flow</text>
<line x1="185" y1="622" x2="215" y2="622" stroke="#0F6E56" stroke-width="1.5" stroke-dasharray="5,3"/>
<text x="220" y="626" text-anchor="start" class="tl" fill="#2C2C2A">Odometry feedback</text>
<line x1="355" y1="622" x2="385" y2="622" stroke="#5F5E5A" stroke-width="1.5"/>
<text x="390" y="626" text-anchor="start" class="tl" fill="#2C2C2A">USB serial</text>
<line x1="455" y1="622" x2="485" y2="622" stroke="#185FA5" stroke-width="1.5"/>
<text x="490" y="626" text-anchor="start" class="tl" fill="#2C2C2A">Physical signals (PWM/GPIO/I²C)</text>
<rect x="560" y="76" width="390" height="482" rx="6" fill="none" stroke="#0F6E56" stroke-width="2.5"/>
<text x="950" y="72" text-anchor="end" class="tc" fill="#0F6E56">× 4 robots (identical)</text>
</svg>